{"title":"The.Last.Days.Of.Lehman.Brothers.HDTV.XviD-AFG","uid":11908751,"size":449633781,"categoryP":"video","categoryS":"tv_shows","magnet":"?xt=urn:btih:81eb60d12161a5e9bcd7d88508f363264ec08ffe&amp;dn=The.Last.Days.Of.Lehman.Brothers.HDTV.XviD-AFG&amp;tr=udp%3A%2F%2Ftracker.openbittorrent.com%3A80&amp;tr=udp%3A%2F%2Fopen.demonii.com%3A1337&amp;tr=udp%3A%2F%2Ftracker.coppersurfer.tk%3A6969&amp;tr=udp%3A%2F%2Fexodus.desync.com%3A6969","seeders":1,"leechers":1,"uploader":"toots2boots","files":3,"time":1431389006,"description":"The Last Days of Lehman Brothers summarizes the events that occurred over the weekend preceding Monday, 15 September 2008, when Lehman declared bankruptcy\n.nvestment bank Lehman Brothers is in trouble after a turbulent six months in which their real estate investments have lost billions of dollars, causing steep drops in Lehman's stock.Both Bank of America and Barclay Bank are interested in purchasing the firm but are dissuaded because so much of Lehman's assets are &quot;toxic&quot;, worthless.Lehman's problems have put the US government in a delicate position. The collapse of a firm of Lehman's size would have catastrophic economic repercussions well beyond the firm itself.Late on the afternoon of 12 September, a Friday, the leaders of the top investment banks on Wall Street, Lehman's competitors, are summoned to the Federal Reserve Bank of New York. American Treasury Secretary Hank Paulson warns the incredulous group that Lehman is not too big to fail and that there will be no bailout using public money.\n\nGeneral\nComplete name                            : G:Torrent uploadLehman BrothersThe.Last.Days.Of.Lehman.Brothers.HDTV.XviD-AFGThe.Last.Days.Of.Lehman.Brothers.HDTV.XviD-AFG.avi\nFormat                                   : AVI\nFormat/Info                              : Audio Video Interleave\nFile size                                : 429 MiB\nDuration                                 : 51mn 23s\nOverall bit rate mode                    : Variable\nOverall bit rate                         : 1 167 Kbps\n\nVideo\nID                                       : 0\nFormat                                   : MPEG-4 Visual\nFormat profile                           : Advanced Simple@L5\nFormat settings, BVOP                    : 2\nFormat settings, QPel                    : No\nFormat settings, GMC                     : No warppoints\nFormat settings, Matrix                  : Default (H.263)\nCodec ID                                 : XVID\nCodec ID/Hint                            : XviD\nDuration                                 : 51mn 23s\nBit rate                                 : 1 026 Kbps\nWidth                                    : 640 pixels\nHeight                                   : 360 pixels\nDisplay aspect ratio                     : 16:9\nFrame rate                               : 25.000 fps\nColor space                              : YUV\nChroma subsampling                       : 4:2:0\nBit depth                                : 8 bits\nScan type                                : Progressive\nCompression mode                         : Lossy\nBits/(Pixel*Frame)                       : 0.178\nStream size                              : 377 MiB (88%)\nWriting library                          : XviD 64\n\nAudio\nID                                       : 1\nFormat                                   : MPEG Audio\nFormat version                           : Version 1\nFormat profile                           : Layer 3\nMode                                     : Joint stereo\nMode extension                           : MS Stereo\nCodec ID                                 : 55\nCodec ID/Hint                            : MP3\nDuration                                 : 51mn 23s\nBit rate mode                            : Variable\nBit rate                                 : 128 Kbps\nChannel(s)                               : 2 channels\nSampling rate                            : 48.0 KHz\nCompression mode                         : Lossy\nStream size                              : 47.0 MiB (11%)\nAlignment                                : Aligned on interleaves\nInterleave, duration                     : 24 ms (0.60 video frame)\nInterleave, preload duration             : 178 ms\nTitle                                    : The.Last.Days.Of.Lehman.Brothers.HDTV.XviD-AFG_360p.audio","torrent":{"xt":"urn:btih:81eb60d12161a5e9bcd7d88508f363264ec08ffe","amp;dn":"The.Last.Days.Of.Lehman.Brothers.HDTV.XviD-AFG","amp;tr":["udp%3A%2F%2Ftracker.openbittorrent.com%3A80","udp%3A%2F%2Fopen.demonii.com%3A1337","udp%3A%2F%2Ftracker.coppersurfer.tk%3A6969","udp%3A%2F%2Fexodus.desync.com%3A6969"],"infoHash":"81eb60d12161a5e9bcd7d88508f363264ec08ffe","infoHashBuffer":{"type":"Buffer","data":[129,235,96,209,33,97,165,233,188,215,216,133,8,243,99,38,78,192,143,254]},"announce":[],"urlList":[]}}